# xmcd
#
# Track frame offsets: 
#        150
#        16030
#        30568
#        45063
#        57389
#        71339
#        84309
#        98384
#        111460
#        125772
#        139746
#        152685
#        164135
#        176866
#        187252
#        203919
#
# Disc length: 2866 seconds
#
# Revision: 0
# Processed by: cddbd v1.5.1PL2 Copyright (c) Steve Scherf et al.
# Submitted via: ExactAudioCopy v0.95a5
#
DISCID=d70b3010
DTITLE=John Lee Hooker - The Ultimate Collection (1948-1990)
DYEAR=1991
DGENRE=Blues
TTITLE0=01 Teachin' the Blues
TTITLE1=02 Boogie Chillen'
TTITLE2=03 Sally Mae
TTITLE3=04 Let Your Daddy Ride
TTITLE4=05 Crawlin' King Snake
TTITLE5=06 Weeping Willow Boogie
TTITLE6=07 Hobo Blues
TTITLE7=08 Huckle up Baby
TTITLE8=09 I'm in the Mood
TTITLE9=10 John l's House Rent Boogie
TTITLE10=11 No More Doggin'
TTITLE11=12 I Need Some Money
TTITLE12=13 Frisco Blues
TTITLE13=14 Dimples
TTITLE14=15 It Serves Me Right to Suffer 
TTITLE15=16 Bottle up and Go
EXTD=
EXTT0=
EXTT1=
EXTT2=
EXTT3=
EXTT4=
EXTT5=
EXTT6=
EXTT7=
EXTT8=
EXTT9=
EXTT10=
EXTT11=
EXTT12=
EXTT13=
EXTT14=
EXTT15=
PLAYORDER=
